<svg width="20" height="20" viewBox="0 0 20 20" fill="none" xmlns="http://www.w3.org/2000/svg">
<path fill-rule="evenodd" clip-rule="evenodd" d="M3 17C3 16.7348 3.11268 16.4804 3.31325 16.2929C3.51383 16.1054 3.78586 16 4.06952 16H16.9037C17.1874 16 17.4594 16.1054 17.66 16.2929C17.8606 16.4804 17.9733 16.7348 17.9733 17C17.9733 17.2652 17.8606 17.5196 17.66 17.7071C17.4594 17.8946 17.1874 18 16.9037 18H4.06952C3.78586 18 3.51383 17.8946 3.31325 17.7071C3.11268 17.5196 3 17.2652 3 17ZM6.52193 9.293C6.72249 9.10553 6.99448 9.00021 7.27808 9.00021C7.56167 9.00021 7.83366 9.10553 8.03422 9.293L9.41711 10.586V3C9.41711 2.73478 9.52979 2.48043 9.73037 2.29289C9.93094 2.10536 10.203 2 10.4866 2C10.7703 2 11.0423 2.10536 11.2429 2.29289C11.4435 2.48043 11.5562 2.73478 11.5562 3V10.586L12.939 9.293C13.0377 9.19749 13.1557 9.12131 13.2862 9.0689C13.4167 9.01649 13.557 8.9889 13.699 8.98775C13.841 8.98659 13.9819 9.0119 14.1133 9.06218C14.2448 9.11246 14.3642 9.18671 14.4646 9.2806C14.565 9.3745 14.6444 9.48615 14.6982 9.60905C14.752 9.73194 14.779 9.86362 14.7778 9.9964C14.7766 10.1292 14.7471 10.2604 14.691 10.3824C14.635 10.5044 14.5535 10.6148 14.4513 10.707L11.2428 13.707C11.0422 13.8945 10.7702 13.9998 10.4866 13.9998C10.203 13.9998 9.93105 13.8945 9.73048 13.707L6.52193 10.707C6.32142 10.5195 6.20878 10.2652 6.20878 10C6.20878 9.73484 6.32142 9.48053 6.52193 9.293Z" fill="white"/>
</svg>
