<svg width="30" height="30" viewBox="0 0 30 30" fill="none" xmlns="http://www.w3.org/2000/svg">
<path fill-rule="evenodd" clip-rule="evenodd" d="M15 1.87505C11.884 1.87547 8.86979 2.98447 6.49656 5.00367C4.12334 7.02287 2.54591 9.82054 2.04645 12.8962C1.54698 15.9719 2.15807 19.125 3.7704 21.7914C5.38273 24.4578 7.89111 26.4636 10.8468 27.4501C11.5031 27.5719 11.7843 27.1688 11.7843 26.8219V24.5907C8.13747 25.3782 7.36872 22.8282 7.36872 22.8282C7.11227 22.0246 6.57252 21.3416 5.84997 20.9063C4.65935 20.1 5.94372 20.1094 5.94372 20.1094C6.3596 20.1682 6.75655 20.3212 7.10426 20.5568C7.45197 20.7924 7.74124 21.1043 7.94997 21.4688C8.31311 22.1201 8.92004 22.6006 9.63731 22.8045C10.3546 23.0084 11.1235 22.9191 11.775 22.5563C11.8279 21.8911 12.1212 21.2679 12.6 20.8032C9.69372 20.4657 6.6281 19.3407 6.6281 14.3157C6.60684 13.0106 7.0905 11.7477 7.9781 10.7907C7.57634 9.66023 7.62331 8.41877 8.10935 7.32192C8.10935 7.32192 9.20622 6.96567 11.7187 8.66255C13.867 8.07656 16.133 8.07656 18.2812 8.66255C20.7843 6.96567 21.8812 7.32192 21.8812 7.32192C22.3673 8.41877 22.4142 9.66023 22.0125 10.7907C22.9001 11.7477 23.3837 13.0106 23.3625 14.3157C23.3625 19.3594 20.2968 20.4657 17.3718 20.7938C17.6852 21.1114 17.9268 21.4924 18.0804 21.9113C18.2341 22.3301 18.2961 22.7771 18.2625 23.2219V26.8219C18.2625 27.2532 18.4968 27.5813 19.2 27.4501C22.1596 26.4624 24.6706 24.4527 26.2826 21.7814C27.8947 19.1101 28.5024 15.9519 27.9968 12.873C27.4912 9.79422 25.9053 6.99622 23.5236 4.98077C21.1418 2.96532 18.12 1.86427 15 1.87505Z" fill="white"/>
</svg>
