<svg width="30" height="30" viewBox="0 0 30 30" fill="none" xmlns="http://www.w3.org/2000/svg">
<path fill-rule="evenodd" clip-rule="evenodd" d="M18.879 6.879C19.1557 6.59247 19.4868 6.36392 19.8528 6.2067C20.2188 6.04947 20.6125 5.96671 21.0108 5.96325C21.4091 5.95979 21.8042 6.03569 22.1729 6.18654C22.5415 6.33738 22.8765 6.56014 23.1582 6.84182C23.4399 7.1235 23.6626 7.45845 23.8135 7.82714C23.9643 8.19583 24.0402 8.59087 24.0368 8.98921C24.0333 9.38754 23.9505 9.7812 23.7933 10.1472C23.6361 10.5132 23.4075 10.8443 23.121 11.121L18.621 15.621C18.0584 16.1834 17.2955 16.4994 16.5 16.4994C15.7045 16.4994 14.9416 16.1834 14.379 15.621C14.0961 15.3478 13.7172 15.1966 13.3239 15.2C12.9306 15.2034 12.5544 15.3612 12.2763 15.6393C11.9982 15.9174 11.8404 16.2936 11.837 16.6869C11.8336 17.0802 11.9848 17.4591 12.258 17.742C13.3832 18.8668 14.909 19.4987 16.5 19.4987C18.091 19.4987 19.6168 18.8668 20.742 17.742L25.242 13.242C26.3349 12.1104 26.9397 10.5948 26.926 9.02159C26.9124 7.44841 26.2814 5.94354 25.1689 4.83109C24.0565 3.71864 22.5516 3.08763 20.9784 3.07396C19.4052 3.06029 17.8896 3.66505 16.758 4.758L14.508 7.008C14.3647 7.14637 14.2505 7.31189 14.1718 7.49489C14.0932 7.6779 14.0519 7.87473 14.0501 8.0739C14.0484 8.27307 14.0863 8.47059 14.1618 8.65493C14.2372 8.83928 14.3486 9.00676 14.4894 9.14759C14.6302 9.28843 14.7977 9.39981 14.9821 9.47523C15.1664 9.55066 15.3639 9.58861 15.5631 9.58688C15.7623 9.58515 15.9591 9.54377 16.1421 9.46515C16.3251 9.38654 16.4906 9.27227 16.629 9.129L18.879 6.879ZM11.379 14.379C11.9416 13.8166 12.7045 13.5006 13.5 13.5006C14.2955 13.5006 15.0584 13.8166 15.621 14.379C15.7594 14.5223 15.9249 14.6365 16.1079 14.7152C16.2909 14.7938 16.4877 14.8351 16.6869 14.8369C16.8861 14.8386 17.0836 14.8007 17.2679 14.7252C17.4523 14.6498 17.6198 14.5384 17.7606 14.3976C17.9014 14.2568 18.0128 14.0893 18.0882 13.9049C18.1637 13.7206 18.2016 13.5231 18.1999 13.3239C18.1981 13.1247 18.1568 12.9279 18.0781 12.7449C17.9995 12.5619 17.8853 12.3964 17.742 12.258C16.6168 11.1332 15.091 10.5013 13.5 10.5013C11.909 10.5013 10.3832 11.1332 9.258 12.258L4.758 16.758C4.18494 17.3115 3.72784 17.9736 3.41339 18.7056C3.09894 19.4376 2.93342 20.2249 2.9265 21.0216C2.91957 21.8183 3.07138 22.6083 3.37307 23.3457C3.67475 24.0831 4.12027 24.753 4.68363 25.3164C5.24699 25.8797 5.9169 26.3252 6.65427 26.6269C7.39165 26.9286 8.18173 27.0804 8.97841 27.0735C9.77508 27.0666 10.5624 26.9011 11.2944 26.5866C12.0264 26.2722 12.6885 25.8151 13.242 25.242L15.492 22.992C15.6353 22.8536 15.7495 22.6881 15.8281 22.5051C15.9068 22.3221 15.9481 22.1253 15.9499 21.9261C15.9516 21.7269 15.9137 21.5294 15.8382 21.3451C15.7628 21.1607 15.6514 20.9932 15.5106 20.8524C15.3698 20.7116 15.2023 20.6002 15.0179 20.5248C14.8336 20.4493 14.6361 20.4114 14.4369 20.4131C14.2377 20.4149 14.0409 20.4562 13.8579 20.5348C13.6749 20.6135 13.5094 20.7277 13.371 20.871L11.121 23.121C10.8443 23.4075 10.5132 23.6361 10.1472 23.7933C9.7812 23.9505 9.38754 24.0333 8.9892 24.0368C8.59086 24.0402 8.19583 23.9643 7.82714 23.8135C7.45845 23.6626 7.12349 23.4399 6.84181 23.1582C6.56014 22.8765 6.33738 22.5416 6.18653 22.1729C6.03569 21.8042 5.95979 21.4091 5.96325 21.0108C5.96671 20.6125 6.04947 20.2188 6.20669 19.8528C6.36392 19.4868 6.59247 19.1557 6.879 18.879L11.379 14.379Z" fill="white"/>
</svg>
