<svg width="30" height="30" viewBox="0 0 30 30" fill="none" xmlns="http://www.w3.org/2000/svg">
<path d="M14.3949 2.5152C7.75744 2.8277 2.52119 8.3152 2.54119 14.9115C2.54448 16.8531 3.00935 18.7661 3.89744 20.4927L2.57494 26.869C2.55881 26.9487 2.56303 27.0312 2.58723 27.1088C2.61143 27.1865 2.65481 27.2568 2.71337 27.3132C2.77194 27.3697 2.84379 27.4104 2.92228 27.4318C3.00077 27.4531 3.08337 27.4543 3.16244 27.4352L9.45495 25.9552C11.1215 26.7788 12.9511 27.2195 14.8099 27.2452C21.5937 27.349 27.2487 22.0015 27.4599 15.2702C27.6874 8.05145 21.6887 2.16895 14.3949 2.51395V2.5152ZM21.9037 21.724C20.9968 22.6276 19.9205 23.3434 18.7365 23.8303C17.5524 24.3172 16.2839 24.5657 15.0037 24.5615C13.4975 24.5661 12.0108 24.2203 10.6612 23.5515L9.78495 23.1177L5.9262 24.0252L6.73869 20.1115L6.3062 19.2715C5.60507 17.9124 5.24149 16.4045 5.24619 14.8752C5.24619 12.2877 6.26119 9.85395 8.10369 8.0252C9.94019 6.20733 12.4196 5.18725 15.0037 5.18645C17.6112 5.18645 20.0612 6.19395 21.9037 8.02395C22.8115 8.9185 23.5318 9.98501 24.0227 11.1612C24.5135 12.3373 24.765 13.5995 24.7624 14.874C24.7624 17.439 23.7312 19.9115 21.9037 21.7252V21.724Z" fill="black"/>
<path d="M21.0525 17.5562L18.6387 16.8687C18.483 16.824 18.3181 16.822 18.1613 16.8629C18.0045 16.9038 17.8616 16.9861 17.7475 17.1012L17.1575 17.6987C17.0354 17.8224 16.8796 17.9073 16.7095 17.9429C16.5394 17.9785 16.3626 17.9631 16.2012 17.8987C15.06 17.44 12.6575 15.32 12.0437 14.2587C11.9577 14.1089 11.9184 13.9367 11.9309 13.7643C11.9433 13.5919 12.007 13.4272 12.1137 13.2912L12.6287 12.6287C12.7279 12.5018 12.7906 12.3503 12.8102 12.1904C12.8298 12.0306 12.8055 11.8684 12.74 11.7212L11.725 9.44125C11.6676 9.31381 11.5814 9.20143 11.4732 9.11293C11.365 9.02443 11.2378 8.96223 11.1015 8.93122C10.9652 8.90021 10.8236 8.90123 10.6878 8.9342C10.552 8.96717 10.4256 9.0312 10.3187 9.12125C9.64499 9.6875 8.84499 10.5462 8.74874 11.5C8.57749 13.1787 9.30249 15.295 12.045 17.8375C15.2137 20.7737 17.7525 21.1625 19.4037 20.7637C20.3412 20.5387 21.0912 19.635 21.5625 18.8962C21.6379 18.7789 21.6846 18.6455 21.6991 18.5068C21.7135 18.3681 21.6952 18.2279 21.6456 18.0976C21.5959 17.9672 21.5164 17.8504 21.4134 17.7563C21.3104 17.6623 21.1868 17.5938 21.0525 17.5562Z" fill="black"/>
</svg>
